<?xml version="1.0" encoding="utf-8"?>
<!-- Generator: Adobe Illustrator 15.1.0, SVG Export Plug-In . SVG Version: 6.00 Build 0)  -->
<!DOCTYPE svg PUBLIC "-//W3C//DTD SVG 1.1//EN" "http://www.w3.org/Graphics/SVG/1.1/DTD/svg11.dtd">
<svg version="1.1" id="Layer_1" xmlns="http://www.w3.org/2000/svg" xmlns:xlink="http://www.w3.org/1999/xlink" x="0px" y="0px"
	 width="17.047px" height="15.453px" viewBox="0 0 17.047 15.453" enable-background="new 0 0 17.047 15.453" xml:space="preserve">
<path fill="#262731" d="M16.754,14.057l-2.387-1.848c-0.081-0.063-0.171-0.105-0.264-0.131c2.288-3.348,1.603-7.951-1.646-10.465
	C9.087-0.994,4.222-0.375,1.613,2.996s-1.987,8.236,1.384,10.846c3.127,2.418,7.535,2.055,10.24-0.699
	c0.049,0.098,0.114,0.188,0.207,0.26l2.387,1.846c0.328,0.256,0.803,0.195,1.058-0.135S17.084,14.311,16.754,14.057 M3.551,13.125
	c-2.978-2.303-3.524-6.598-1.222-9.574c2.304-2.977,6.599-3.525,9.574-1.223c2.978,2.305,3.524,6.6,1.222,9.574
	C10.821,14.881,6.526,15.428,3.551,13.125"/>
</svg>
